<svg width="30" height="30" viewBox="0 0 30 30" fill="none" xmlns="http://www.w3.org/2000/svg">
<path fill-rule="evenodd" clip-rule="evenodd" d="M22.3684 24.4721C20.3348 26.0563 17.7776 27 15 27C8.37258 27 3 21.6274 3 15C3 8.37258 8.37258 3 15 3C17.7776 3 20.3348 3.94369 22.3684 5.52794C23.0056 4.7464 23.72 4.03029 24.5 3.39123C21.9132 1.27181 18.6051 0 15 0C6.71573 0 0 6.71573 0 15C0 23.2843 6.71573 30 15 30C18.6051 30 21.9132 28.7282 24.5 26.6088C23.72 25.9697 23.0056 25.2536 22.3684 24.4721Z" fill="white"/>
</svg>
